<svg width="152" height="163" viewBox="0 0 152 163" fill="none" xmlns="http://www.w3.org/2000/svg">
<path d="M151.356 80.9139C151.356 125.769 117.673 162.214 76.2172 162.214C34.6829 162.214 1 125.769 1 80.9139C1 35.9735 34.6829 -0.38652 76.2172 -0.38652C117.673 -0.38652 151.356 35.9735 151.356 80.9139Z" stroke="#CFC1E6" stroke-width="0.3528"/>
<path d="M140.05 80.9139C140.05 119.058 111.47 149.981 76.2169 149.981C40.9638 149.981 12.3844 119.058 12.3844 80.9139C12.3844 42.7698 40.9638 11.8468 76.2169 11.8468C111.47 11.8468 140.05 42.7698 140.05 80.9139Z" stroke="#CFC1E6" stroke-width="0.3528"/>
<path d="M128.665 80.9139C128.665 112.262 105.189 137.748 76.2172 137.748C47.1667 137.748 23.6908 112.262 23.6908 80.9139C23.6908 49.4811 47.1667 24.0801 76.2172 24.0801C105.189 24.0801 128.665 49.4811 128.665 80.9139Z" stroke="#CFC1E6" stroke-width="0.3528"/>
<path d="M117.359 80.9139C117.359 105.55 98.9076 125.514 76.2169 125.514C53.4476 125.514 34.9966 105.55 34.9966 80.9139C34.9966 56.2775 53.4476 36.3134 76.2169 36.3134C98.9076 36.3134 117.359 56.2775 117.359 80.9139Z" stroke="#CFC1E6" stroke-width="0.3528"/>
<path d="M106.053 80.9139C106.053 98.7541 92.7055 113.281 76.2174 113.281C59.6508 113.281 46.3033 98.7541 46.3033 80.9139C46.3033 62.9887 59.6508 48.5466 76.2174 48.5466C92.7055 48.5466 106.053 62.9887 106.053 80.9139Z" stroke="#CFC1E6" stroke-width="0.3528"/>
<path d="M94.7464 80.914C94.7464 92.0429 86.4238 101.048 76.2169 101.048C65.9315 101.048 57.6089 92.0429 57.6089 80.914C57.6089 69.7851 65.9315 60.7801 76.2169 60.7801C86.4238 60.7801 94.7464 69.7851 94.7464 80.914Z" stroke="#CFC1E6" stroke-width="0.3528"/>
<path d="M83.4407 80.9138C83.4407 85.2464 80.2216 88.8144 76.2174 88.8144C72.1346 88.8144 68.9155 85.2464 68.9155 80.9138C68.9155 76.4962 72.1346 73.0131 76.2174 73.0131C80.2216 73.0131 83.4407 76.4962 83.4407 80.9138Z" stroke="#CFC1E6" stroke-width="0.3528"/>
</svg>
